<?xml version="1.0" encoding="utf-8" ?><svg xmlns="http://www.w3.org/2000/svg" xmlns:xlink="http://www.w3.org/1999/xlink" width="1024" height="1024" viewBox="0 0 1024 1024"><path d="M900.123 718.685C898.581 764.198 874.46 812.71 842.195 844.389C816.305 869.873 783.874 887.705 748.485 895.914C719.98 902.457 693.089 900.873 664.035 900.873L581.22 900.874L409.053 900.881L317.813 900.861C265.641 900.408 215.796 879.203 179.287 841.932C153.908 816.09 136.199 783.712 128.13 748.403C121.689 720.087 123.294 692.839 123.295 663.948L123.298 576.465L123.3 405.568C123.296 376.265 122.958 346.285 123.321 317.024C123.86 265.052 145.027 215.423 182.164 179.06C207.634 154.17 239.406 136.694 274.065 128.51C303.368 121.611 329.213 123.258 359.075 123.256L439.811 123.253L599.213 123.249C630.059 123.248 661.295 123.013 692.107 123.394C686.943 130.542 684.57 134.309 682.999 143.074C678.938 165.744 696.805 178.904 711.065 193.121L740.472 222.469L711.254 251.658C703.999 258.909 690.784 270.562 686.474 278.982C678.326 294.898 683.233 313.305 695.794 325.19C704.982 334.986 713.876 341.153 727.822 341.456C746.601 341.863 757.009 327.93 769.17 315.755C779.863 304.952 790.629 294.221 801.465 283.562L833.445 315.506C843.902 325.991 853.249 338.216 868.473 340.787C880.168 342.762 888.733 340.019 898.367 333.54C900.078 336.37 899.372 367.128 899.367 373.161L899.344 438.706L899.351 638.684L899.329 689.086C899.32 696.67 898.808 711.735 900.123 718.685ZM524.75 753.988L615.528 754.012L640.232 754.007C647.29 754.004 655.055 754.362 661.913 752.883C671.933 750.791 681.104 745.767 688.263 738.451C698.741 727.885 703.436 714.295 703.133 699.598C702.105 649.745 681.246 601.112 645.559 566.453C608.72 530.248 558.742 510.578 507.109 511.964C505.362 511.996 501.835 511.997 500.236 512.199C445.841 517.094 400.043 538.653 364.727 581.272C341.139 609.865 326.349 644.686 322.151 681.515C321.241 689.267 320.386 699.462 321.135 707.199C322.423 721.037 329.259 733.763 340.086 742.476C354.776 754.388 366.736 754.043 384.387 754.024L414.76 753.985L524.75 753.988ZM519.745 486.435C579.315 482.149 624.165 430.437 619.985 370.86C615.804 311.282 564.172 266.341 504.587 270.416C444.853 274.501 399.774 326.291 403.965 386.018C408.156 445.745 460.026 490.732 519.745 486.435Z"/><path d="M724.309 123.564C733.645 122.873 736.94 125.074 743.488 131.65C748.187 136.368 753.024 141.176 757.742 145.902L801.546 189.646L843.424 147.623C849.202 141.834 854.966 135.969 860.81 130.279C865.025 126.176 868.262 123.654 874.355 123.378C882.574 123.006 885.798 127.157 891.29 132.037C899.592 139.414 904.823 149.593 896.786 159.417C890.656 166.644 883.347 173.453 876.548 180.249L834.242 222.521C854.886 242.391 874.762 263.413 895.178 283.519C909.411 297.536 891.972 317.389 878.17 321.583C877.079 321.724 875.978 321.787 874.878 321.771C871.999 321.731 867.753 320.47 865.592 318.684C858.521 312.843 851.148 304.92 844.643 298.411L801.519 255.285C786.812 269.575 772.481 284.636 757.801 299.006C751.23 305.439 744.215 313.313 736.967 318.84C734.454 320.986 730.496 321.98 727.253 321.825C717.551 321.362 701.781 305.967 702.343 295.962C702.484 292.844 703.041 289.654 705.03 287.105C711.396 278.947 719.679 271.366 727.018 264.035L768.679 222.46L727.776 181.591C720.938 174.753 714.086 168.037 707.425 160.987C698.88 151.943 701.876 141.501 710.055 133.541C715.051 128.679 717.426 125.675 724.309 123.564Z"/><path d="M898.367 333.54L899.768 332.455C901.513 333.63 900.664 345.918 900.64 348.622L900.657 374.873L900.667 488.988L900.652 647.74L900.665 692.168C900.68 698.932 901.026 712.344 900.123 718.685C898.808 711.735 899.32 696.67 899.329 689.086L899.351 638.684L899.344 438.706L899.367 373.161C899.372 367.128 900.078 336.37 898.367 333.54Z"/></svg>