<?xml version="1.0" encoding="utf-8" ?><svg xmlns="http://www.w3.org/2000/svg" xmlns:xlink="http://www.w3.org/1999/xlink" width="1024" height="1024" viewBox="0 0 1024 1024"><path d="M183.777 90.7005C187.501 90.1659 195.676 90.3116 199.664 90.3101L227.904 90.3227L322.261 90.35L525.42 90.3438C559.275 90.342 594.273 89.8326 628.009 90.3602C659.239 90.849 688.977 103.804 710.602 126.34C725.781 142.064 736.237 161.737 740.777 183.115C744.256 199.527 743.475 218.504 743.472 235.413L743.453 291.107L743.465 405.878C743.546 427.555 743.503 449.233 743.337 470.911L693.16 470.92C694.314 455.545 690.409 438.438 685.24 423.784C683.916 420.03 677.229 411.608 674.773 408.071C671.805 403.505 666.985 400.475 662.976 397.301C654.237 390.38 647.265 386.798 636.233 384.923C631.901 384.187 627.205 382.672 622.529 382.065C614.912 381.075 608.043 382.564 600.707 384.648C595.638 385.989 590.059 386.518 585.131 388.468C566.717 398.051 553.421 413.994 538.438 427.643C529.062 436.185 518.184 448.311 508.477 455.701L507.729 456.266C456.503 416.758 381.326 412.995 326.212 446.738C315.739 452.932 305.997 460.286 297.17 468.661C266.101 497.984 247.808 538.347 246.24 581.04C245.827 595.662 247.588 606.755 258.181 617.72C274.211 634.311 291.359 631.727 312.188 631.698C325.25 631.585 338.312 631.622 351.373 631.81C350.418 640.114 351.596 649.42 351.002 657.607C348.352 694.158 358.731 722.666 367.545 757.381C329.311 757.94 289.973 757.46 251.656 757.469L212.983 757.494C197.757 757.5 184.566 758.015 169.507 754.826C150.845 750.929 133.426 742.509 118.78 730.304C94.6205 710.259 79.5173 681.356 76.8572 650.077C75.9824 639.856 76.3356 626.856 76.3354 616.312L76.3541 561.778L76.3538 391.624L76.3538 260.235L76.3432 222.539C76.3421 211.512 76.0455 200.984 77.709 190.038C80.9444 168.643 90.0284 148.559 103.958 132.001C123.969 108.112 152.717 93.237 183.777 90.7005ZM414.252 402.027C465.408 399.607 504.959 356.245 502.676 305.082C500.393 253.919 457.136 214.252 405.967 216.399C354.605 218.553 314.755 262.009 317.047 313.366C319.339 364.723 362.901 404.456 414.252 402.027Z"/><path d="M614.406 440.55C614.939 440.517 615.472 440.49 616.005 440.471C621.093 440.3 625.453 441.787 629.143 445.338C633.465 449.455 634.093 454.135 634.11 459.801C634.129 466.194 634.125 472.581 634.122 478.971L634.065 530.005C664.147 530.49 695.023 529.669 725.18 530.044C766.806 530.562 796.584 526.399 836.345 541.589C879.361 558.166 914.071 591.091 932.894 633.173C945.9 662.331 949.039 690.252 948.039 721.857C947.644 734.362 950.992 747.941 936.338 753.384C928.574 756.267 918.251 751.492 915.671 743.799C913.759 738.097 914.171 730.043 913.509 723.929C912.501 714.691 910.36 705.613 907.134 696.898C896.197 666.851 873.899 643.731 845.124 630.193C834.332 625.322 822.854 622.141 811.094 620.76C801.381 619.595 791.917 619.848 782.157 619.854L746.437 619.862C709.217 619.855 671.234 619.466 634.103 619.993C633.93 636.52 634.275 653.211 634.129 669.741C634.071 676.338 634.498 686.708 633.945 693.013C633.746 695.251 633.25 697.452 632.471 699.56C630.658 704.379 627.827 705.998 623.54 708.171C620.403 709.762 612.363 709.578 610.008 707.826C601.833 701.744 591.174 690.862 583.745 683.772L537.22 639.368L502.063 605.843C495.314 599.409 488.214 593.072 481.84 586.274C480.017 584.329 478.616 582.207 477.852 579.628C476.65 575.567 477.332 570.557 479.368 566.873C482.854 560.564 525.245 521.865 533.192 514.252L579.634 469.921C588.648 461.275 597.684 452.405 606.974 444.045C609.237 442.007 611.523 441.35 614.406 440.55Z"/><path d="M423.249 620.073C430.913 619.24 437.999 621.616 441.701 628.921C443.392 632.256 443.679 636.371 443.762 640.095C444.428 670.014 456.988 698.546 478.094 719.727C493.475 735.121 512.822 745.949 533.987 751.01C550.096 754.875 563.766 754.3 580.042 754.277L613.777 754.269L723.95 754.249L723.898 686.462C723.932 679.362 723.719 674.474 729.232 668.968C733.705 664.5 744.106 662.946 749.148 666.931C755.561 671.998 761.794 678.35 767.784 684.07L800.304 715.139L849.884 762.459C858.603 770.774 867.364 779.051 875.956 787.49C881.241 792.681 882.53 802.524 877.711 808.361C871.299 816.127 862.898 823.342 855.507 830.343L783.251 899.347L762.856 918.814C758.42 923.045 754.373 926.923 749.51 930.889C741.328 937.561 725.899 931.296 724.487 921.217C723.398 913.435 723.904 903.412 723.904 895.207L723.941 844.027C689.093 843.335 653.275 844.421 618.332 843.981C598.471 843.73 577.782 845.042 558.194 842.078C539.762 839.262 521.888 833.56 505.231 825.181C463.776 804.041 432.458 767.25 418.208 722.953C410.569 699.359 409.442 676.969 410.002 652.384C410.31 638.84 406.733 625.252 423.249 620.073Z"/></svg>