<?xml version="1.0" encoding="utf-8" ?><svg xmlns="http://www.w3.org/2000/svg" xmlns:xlink="http://www.w3.org/1999/xlink" width="512" height="512" viewBox="0 0 512 512"><path d="M57.239 44.0841C66.4105 43.5617 69.7867 48.5534 75.7504 54.5171L89.5365 68.3096L104.4 83.1589C107.052 85.8091 110.418 88.7845 112.7 91.6851C120.535 101.648 114.888 114.279 102.838 116.271C94.5344 117.14 90.1942 111.479 84.953 106.239L71.7573 93.0426L55.9426 77.2175C52.346 73.6179 48.1181 69.8685 45.3534 65.5651C44.8897 64.8432 44.3641 62.6396 44.2102 61.7243C43.4819 57.6088 44.4492 53.3737 46.892 49.9825C49.6003 46.2838 52.8417 44.7993 57.239 44.0841Z"/><path d="M99.0887 213.838C107.286 212.96 114.435 217.549 116.001 225.875C117.796 235.424 110.573 240.575 104.55 246.602L89.2245 261.937L75.6679 275.488C71.2523 279.899 67.5079 284.867 61.0324 285.87C57.103 286.205 53.8225 285.679 50.4663 283.437C47.2448 281.286 45.0168 277.937 44.2782 274.134C42.3362 264.179 49.5675 259.126 55.8561 252.83L70.9148 237.757L84.5763 224.097C89.2189 219.458 92.3043 215.032 99.0887 213.838Z"/><path d="M269.442 44.0757C273.125 43.8629 276.411 44.4788 279.507 46.6053C282.769 48.808 284.999 52.2396 285.686 56.1156C287.465 65.8784 280.136 71.0122 273.944 77.2091L258.532 92.6315L245.025 106.133C240.063 111.089 237.441 115.025 230.222 116.25C217.75 117.969 208.992 103.155 216.28 92.9035C218.611 89.6251 222.884 85.8044 225.815 82.8696L242.33 66.3426L255.178 53.4993C260.121 48.562 262.161 45.2045 269.442 44.0757Z"/><path d="M451.543 512C448.584 510.019 446.73 510.431 443.502 507.175C436.924 500.539 430.288 493.939 423.679 487.332L382.328 445.986L257.885 321.543L169.454 233.116L146.959 210.62C143.006 206.666 132.471 197.151 130.249 192.698C128.534 189.263 128.476 184.853 129.673 181.235C130.253 179.482 131.148 177.976 132.335 176.568C134.69 173.774 137.44 171.242 140.024 168.656L152.845 155.831L167.31 141.429C170.134 138.598 172.883 135.702 175.785 132.967C180.091 128.911 185.978 127.82 191.514 129.806C193.822 130.634 196.188 132.535 197.914 134.251C204.969 141.262 211.989 148.309 219.022 155.343L260.723 197.047L386.151 322.476L467.76 404.082L493.628 429.977C498.273 434.608 503.047 439.206 507.586 443.941C510.214 446.682 510.47 448.539 512 451.782L512 457.229C511.185 459.181 510.117 462.16 508.832 463.677C506.318 466.647 503.268 469.547 500.499 472.31L486.253 486.517L471.949 500.849C469.256 503.548 466.63 506.278 463.767 508.799C461.946 510.402 459.33 510.843 457.519 512L451.543 512ZM228.574 249.752L335.093 356.292L371.031 392.226C373.232 394.427 389.976 411.487 391.124 411.811C395.518 407.481 399.886 403.124 404.227 398.74C406.607 396.356 409.795 393.353 412.036 390.92L310.467 289.297L271.713 250.546C264.871 243.704 258.033 236.805 251.126 230.027C250.533 229.445 250.223 229.094 249.41 228.909C244.064 234.718 238.016 240.141 232.536 245.847C231.292 247.142 229.898 248.544 228.574 249.752ZM165.011 186.343C168.813 189.831 172.839 194.031 176.515 197.708L196.237 217.437C198.079 219.279 205.913 227.421 207.67 228.361C214.203 221.453 221.721 214.134 228.521 207.435C214.836 193.324 200.575 179.528 186.675 165.612C186.616 165.554 185.974 165.443 185.835 165.439C181.405 169.717 177.025 174.046 172.696 178.427C170.52 180.603 166.853 184.079 165.011 186.343ZM412.162 433.471C415.987 437.013 419.971 441.157 423.679 444.867L443.145 464.346C444.789 465.99 453.32 474.813 454.777 475.505C459.352 470.84 463.958 466.204 468.594 461.599C470.497 459.699 473.959 456.437 475.616 454.494C471.526 450.383 435.094 413.243 433.268 412.397C426.782 418.473 418.235 426.973 412.162 433.471Z"/><path d="M0 161.815C1.80398 158.81 1.65927 157.02 4.47062 154.258C10.2716 148.558 18.9903 149.996 26.6433 149.993L50.7792 150L66.2787 149.987C71.8032 149.96 77.5054 149.246 82.5885 152.15C94.2084 158.788 91.3196 176.495 78.4865 179.554C74.7742 180.44 68.4353 180.083 64.3293 180.085L43.5149 180.094L25.1091 180.097C18.9771 180.097 12.1555 180.854 6.71791 177.553C2.22233 174.824 2.29233 171.748 0 168.158L0 161.815Z"/><path d="M161.745 0L167.988 0C168.754 0.469679 170.736 1.242 171.639 1.63135C174.048 2.67827 176.295 4.88942 177.685 7.09601C180.671 11.8354 179.998 18.0153 179.997 23.3816L180.002 39.6212L180.01 62.8935C180.011 66.9082 180.292 75.0437 179.441 78.6033C178.499 82.4791 176.029 85.809 172.594 87.8351C165.074 92.3448 155.688 89.4429 151.62 81.9523C149.45 77.9567 149.987 70.0062 149.985 65.4218L149.99 47.4002L149.982 27.6278C149.982 23.1484 149.6 13.893 150.848 9.92987C152.751 3.88631 157.07 2.35582 161.745 0Z"/></svg>