<?xml version="1.0" encoding="utf-8" ?><svg xmlns="http://www.w3.org/2000/svg" xmlns:xlink="http://www.w3.org/1999/xlink" width="1024" height="1024" viewBox="0 0 1024 1024"><path fill="#141314" d="M671.36 363.262C681.893 362.862 694.93 362.583 705.486 363.402C747.891 366.404 788.32 382.494 821.192 409.452C866.765 447.305 887.104 498.318 887.023 556.671C887.25 586.784 880.869 616.581 868.331 643.961C853.248 676.691 825.938 706.478 821.222 742.04C814.817 790.327 839.098 834.291 848.999 880.101C850.584 887.432 843.212 894.072 835.8 894.229C823.093 894.498 821.629 880.546 818.722 871.105L808.961 839.344C803.132 820.339 796.256 799.874 794.073 780.056C791.841 757.386 792.961 732.406 800.826 710.878C810.569 684.21 829.119 661.448 841.395 636.025C853.391 611.066 859.742 583.771 859.998 556.08C860.697 514.224 845.765 473.89 816.984 443.19C756.119 378.267 634.869 369.758 570.279 433.836C552.478 451.561 541.248 473.297 534.911 497.454C533.047 504.561 531.067 512.902 531.211 520.249C531.529 536.413 535.728 552.953 528.884 568.415C525.034 577.269 519.926 585.045 514.399 593.021C507.871 602.41 501.252 611.735 494.542 620.996C488.291 629.627 482.68 636.788 477.665 646.235C487.791 654.924 508.645 651.489 514.216 665.181C518.307 675.236 512.442 695.021 508.825 704.766C514.473 708.155 524.065 712.997 525.17 720.082C526.315 727.417 520.177 733.84 516.222 739.45C518.589 744.422 522.964 752.272 523.471 757.682C525.904 783.978 507.822 804.786 548.296 803.98C566.228 803.623 603.954 796.329 619.696 800.889C627.175 803.003 633.481 808.053 637.178 814.889C643.404 826.154 660.566 886.99 657.278 897.187C656.273 900.304 653.656 903.412 650.634 904.739C647.056 906.31 641.889 906.573 638.286 904.942C635.032 903.469 632.846 900.58 631.544 897.326C628.94 890.823 628.612 882.742 627.239 875.87C624.582 862.568 621.145 848.045 616.429 835.289C615.236 832.064 613.573 828.816 610.174 827.554C605.2 825.707 598.208 827.06 592.994 827.573C570.694 829.766 538.091 836.162 517.377 826.418C499.126 817.833 492.785 800.903 494.316 781.74C494.751 776.284 496.731 770.183 496.094 764.796C495.26 757.743 490.763 752.651 488.578 746.154C486.127 738.865 488.563 733.016 491.926 726.604C474.524 711.207 482.095 698.715 487.426 679.95C480.146 677.631 469.391 675.922 463.634 670.747C439.141 648.733 452.385 632.037 467.569 610.506C478.694 594.73 497.041 573.531 503.877 555.484C505.624 549.649 502.43 541.966 502.434 536.48C502.462 496.858 516.632 455.331 541.565 425.005C576.252 382.813 619.514 368.448 671.36 363.262Z"/><path fill="#141314" d="M318.517 214.847C368.755 209.896 413.515 246.56 418.552 296.79C423.59 347.019 387.003 391.842 336.782 396.966C286.438 402.102 241.483 365.406 236.433 315.054C231.383 264.702 268.156 219.81 318.517 214.847ZM333.29 369.894C368.586 366.709 394.6 335.486 391.359 300.195C388.119 264.903 356.855 238.939 321.569 242.235C286.361 245.524 260.468 276.703 263.701 311.916C266.934 347.129 298.072 373.071 333.29 369.894Z"/><path fill="#141314" d="M657.546 227.094C666.573 226.331 670.816 228.318 674.169 236.925C683.012 259.624 691.695 282.755 699.472 305.836C701.625 312.227 698.183 319.822 691.878 321.991C688.461 323.166 684.254 323.324 680.62 323.65C661.176 325.215 642.225 331.025 623.047 334.484C620.959 334.86 618.898 335.453 616.765 335.638C614.517 335.829 612.26 335.41 610.23 334.425C601.671 330.314 599.751 315.794 607.027 311.913C617.07 306.558 634.063 304.659 645.728 302.066C630.418 293.457 619.149 288.467 602.886 282.561C589.755 278.051 576.205 274.868 562.439 273.057C557.407 272.406 552.345 272.016 547.272 271.89C539.48 271.705 526.316 272.847 519.236 269.219C512.884 265.556 512.118 255.509 515.853 250.044C521.253 242.142 538.05 244.428 546.956 244.812C587.585 246.448 627.076 258.696 661.501 280.336C656.931 268.756 650.67 254.819 647.776 242.614C646.133 235.682 650.806 229.574 657.546 227.094Z"/><path fill="#141314" d="M279.445 520.164C287.167 519.667 293.505 520.858 295.268 529.93C295.93 534.835 295.2 540.073 295.01 545.006C293.78 576.869 298.388 609.124 310.581 638.862C320.256 663.002 334.466 685.065 352.443 703.858C368.819 720.929 385.834 731.066 405.1 744.137C414.162 750.285 413.238 762.704 401.162 767.044C392.088 768.026 380.153 758.773 372.649 753.775C335.91 729.411 307.052 694.885 289.592 654.407C273.658 617.852 267.234 577.887 269.639 538.163C270.16 529.562 270.635 523.72 279.445 520.164Z"/><path fill="#141314" d="M200.959 168.087C203.459 168.158 205.818 168.665 208.048 169.816C212.404 172.062 241.56 201.353 245.589 206.277C247.249 208.305 248.67 210.536 249.453 213.054C250.545 216.566 250.552 220.858 248.638 224.092C246.302 228.038 241.919 229.721 237.714 230.79C230.677 230.42 227.961 228.289 223.197 223.429C212.589 212.604 201.348 202.226 191.318 190.874C189.956 189.333 189.039 186.986 188.576 184.993C186.678 175.59 192.258 170.008 200.959 168.087Z"/><path fill="#141314" d="M415.533 380.549C417.584 380.31 419.662 380.552 421.603 381.254C427.867 383.586 435.771 393.576 440.956 398.54C446.961 405.008 454.249 410.781 459.92 417.521C469.19 428.536 465.69 438.551 452.859 442.749C446.49 443.275 443.116 440.437 438.927 436.197C428.151 425.292 416.878 414.753 406.548 403.434C405.115 401.864 403.981 399.753 403.546 397.67C401.602 388.65 407.155 382.685 415.533 380.549Z"/><path fill="#141314" d="M237.137 380.146C244.041 380.856 249.869 384.304 250.984 391.683C251.562 395.529 250.569 399.445 248.23 402.552C246.554 404.759 244.527 406.889 242.499 408.83C232.096 418.787 222.715 429.969 211.93 439.478C209.912 441.257 206.849 441.715 204.278 442.06C191.445 440.615 185.556 429.439 193.91 418.404C198.155 413.559 203.478 407.573 208.389 403.385C217.314 395.774 225.302 382.044 237.137 380.146Z"/><path fill="#141314" d="M447.137 169.124C466.389 167.59 468.614 187.161 455.481 197.715C446.207 205.168 430.078 226.909 419.717 230.528C401.555 232.618 397.675 211.965 412.036 201.555C420.886 195.14 437.218 172.142 447.137 169.124Z"/><path fill="#141314" d="M150.305 292.642C163.441 292.005 177.088 292.934 190.272 292.487C197.308 292.283 210.122 291.817 213.393 299.884C217.244 309.383 212.023 317.484 202.769 319.654C186.311 320.138 169.418 319.623 152.91 319.839C136.731 320.051 132.112 296.762 150.305 292.642Z"/><path fill="#141314" d="M324.058 419.116C326.765 418.995 329.33 418.865 331.962 419.683C334.629 420.512 337.784 422.512 339.035 425.105C340.052 427.213 340.507 430.127 340.712 432.453C341.332 439.522 341.681 481.594 339.664 486.264C338.005 490.104 334.389 492.181 330.735 493.748C327.884 493.959 325.218 494.007 322.481 493.054C319.184 491.907 316.313 489.604 314.915 486.346C313.103 482.125 313.482 439.229 313.954 432.039C314.084 430.062 314.25 428.059 315.121 426.252C316.875 422.611 320.355 420.377 324.058 419.116Z"/><path fill="#141314" d="M451.944 292.619C467.649 291.898 485.08 292.679 500.901 292.559C515.818 292.446 521.44 313.246 503.62 319.645L470.898 319.745C465.105 319.759 459.607 319.769 453.605 319.579C442.459 319.228 436.658 307.701 442.348 298.374C444.403 295.005 448.084 293.392 451.944 292.619Z"/><path fill="#141314" d="M325.411 119.097C328.107 119.005 330.234 119.174 332.733 120.26C335.775 121.584 338.66 124.006 339.761 127.231C341.655 132.782 341.731 181.001 339.497 185.404C337.43 189.477 333.694 191.397 329.532 192.767C309.015 193.369 313.316 171.194 313.448 156.44C313.574 142.428 308.71 123.187 325.411 119.097Z"/></svg>