<?xml version="1.0" encoding="utf-8" ?><svg xmlns="http://www.w3.org/2000/svg" xmlns:xlink="http://www.w3.org/1999/xlink" width="1024" height="1024" viewBox="0 0 1024 1024"><path d="M253.551 124.176C255.248 124.032 258.015 124.029 259.746 124.019L609.429 124.038L717.873 124.029L750.513 123.993C757.249 123.987 765.803 123.718 772.336 124.492C780.618 125.483 788.318 129.256 794.175 135.193C806.017 147.073 805.205 159.718 805.003 175.273C804.921 181.544 804.98 188.036 804.974 194.322L804.97 272.202L804.977 541.398C797.042 525.088 776.713 501.655 763.358 489.643C713.271 444.595 655.361 429.748 589.363 432.907C604.798 417.186 620.331 401.562 635.96 386.035C641.027 380.965 655.333 366.08 659.986 362.809C664.125 359.956 668.979 358.315 674 358.072C687.183 357.373 693.975 364.766 702.973 372.958C707.147 376.758 711.361 380.592 715.537 384.394C732.915 400.338 750.387 416.179 767.953 431.917L767.885 161.512C720.99 160.746 672.306 161.458 625.181 161.456L345.75 161.458L256.237 161.504C255.754 169.569 256.121 180.973 256.12 189.379L256.124 242.214C256.13 302.609 256.68 363.872 256.032 424.203C259.785 420.329 264.734 414.221 268.346 410.02L290.962 383.71L361.08 302.172L382.27 277.547C386.712 272.387 392.481 265.058 397.599 260.891C406.628 253.538 423.16 254.038 431.649 262.06C437.609 267.692 443.271 274.942 448.649 281.368L476.825 315.059L575.345 432.746C548.544 433.145 520.934 432.932 494.087 432.847C494.142 398.255 502.091 347.112 456.67 336.912C445.615 334.429 427.813 335.848 419.184 343.185C389.815 368.16 361.171 397.097 333.243 423.748C319.646 436.517 306.143 449.384 292.733 462.349C287.15 467.703 280.763 473.025 275.712 478.742C264.022 491.976 260.019 508.894 265.127 525.872C269.732 541.181 281.485 550.315 292.661 560.79C299.498 567.198 305.777 573.929 312.947 579.989L286.593 579.954C286.279 557.399 273.849 538.208 251.254 532.574C237.317 529.1 232.777 531.014 219.048 534.055L219.045 274.614L219.022 196.157C219.019 183.484 218.351 169.58 219.37 157.079C220.891 138.426 236.013 126.239 253.551 124.176Z"/><path d="M234.895 560.573C248.114 559.445 256.544 567.59 256.614 580.544C256.633 584.117 256.918 589.296 257.298 592.853C260.575 621.602 273.459 648.404 293.865 668.919C310.804 685.929 332.182 697.837 355.561 703.284C372.366 707.252 385.997 706.571 402.893 706.554L439.338 706.534L561.36 706.508C561.211 703.041 561.266 699.188 561.318 695.686C561.672 671.72 560.606 647.557 561.772 623.64C561.899 621.045 564.387 616.772 566.151 614.88C569.478 611.314 574.125 609.273 579.001 609.236C581.916 609.187 586.912 610.11 589.141 611.925C595.341 616.974 601.376 623.002 607.175 628.541L639.873 659.776L696.171 713.494C706.273 723.131 716.589 732.836 726.421 742.497C735.671 752.367 732.225 763.373 723.13 771.656C716.65 777.558 710.213 783.866 703.966 789.823L626.796 863.463L604.704 884.592C599.606 889.482 594.773 894.289 589.172 898.686C580.081 905.988 563.626 899.244 562.05 887.861C560.77 878.627 561.282 867.949 561.285 858.502L561.332 804.214C547.571 803.758 532.571 804.069 518.665 804.069L442.348 804.074C422.867 804.076 399.142 804.97 380.257 801.991C359.1 798.745 338.657 791.894 319.816 781.737C275.919 758.162 243.057 718.265 228.33 670.664C226.213 663.635 221.869 645.935 220.778 638.594C219.723 631.493 220.239 613.178 220.088 605.116C219.969 598.779 219.626 582.332 220.237 577.09C220.529 574.358 221.368 571.712 222.705 569.312C225.673 564.07 229.401 562.079 234.895 560.573Z"/><path d="M463.692 560.655C463.373 582.826 463.856 605.063 463.668 627.236C463.63 631.699 464.148 641.133 462.756 645.176C458.115 658.648 442.674 661.992 432.222 652.242C425.48 645.953 418.772 639.401 412.076 632.97L373.589 596.228L325.74 550.563C319.014 544.151 312.311 537.755 305.554 531.337C301.391 527.382 296.179 522.711 293.828 517.305C292.528 514.313 293.085 508.708 294.165 505.68C295.176 502.841 297.098 500.055 299.238 497.899C306.954 490.471 314.704 483.052 322.469 475.671L365.997 434.179L409.663 392.476C417.423 385.069 425.057 377.501 433.037 370.338C444.107 360.403 458.745 365.895 463.287 379.478C461.481 382.993 462.26 403.466 462.28 408.913L462.41 462.247C463.232 462.905 462.868 462.729 463.401 462.948C495.657 462.355 529.77 462.943 562.183 462.931L601.891 462.922C612.292 462.923 622.601 462.753 632.972 463.653C674.239 467.366 713.131 484.579 743.628 512.626C780.889 546.695 802.929 594.285 804.814 644.738C805.292 656.032 804.752 667.551 805.013 678.859C804.935 687.358 806.167 694.091 799.907 700.858C791.176 710.295 776.59 707.844 770.596 696.941C767.514 691.335 768.457 680.21 767.617 673.418C763.972 643.974 750.654 617.043 729.311 596.354C713.402 580.981 693.772 570.005 672.345 564.502C652.54 559.617 638.147 560.529 618.104 560.562L578.637 560.574C540.586 560.555 501.675 560.165 463.692 560.655Z"/><path d="M654.445 208.259C682.35 204.759 707.842 224.456 711.498 252.341C715.153 280.227 695.599 305.828 667.734 309.639C639.649 313.48 613.801 293.737 610.116 265.631C606.432 237.525 626.319 211.787 654.445 208.259Z"/><path d="M463.287 379.478C463.876 385.369 463.661 393.187 463.66 399.303L463.678 430.993C463.679 435.299 463.971 459.821 463.401 462.948C462.868 462.729 463.232 462.905 462.41 462.247L462.28 408.913C462.26 403.466 461.481 382.993 463.287 379.478Z"/></svg>