<?xml version="1.0" encoding="utf-8" ?><svg xmlns="http://www.w3.org/2000/svg" xmlns:xlink="http://www.w3.org/1999/xlink" width="1024" height="1024" viewBox="0 0 1024 1024"><path d="M702.242 710.162C697.182 736.615 676.201 754.592 648.746 753.995C645.081 753.916 641.116 754.005 637.426 754.006L604.322 753.997L497.715 753.988L409.475 753.987C400.124 753.988 374.201 754.616 366.139 753.524C356.448 752.254 347.323 748.232 339.847 741.936C320.516 725.756 319.852 707.038 322.164 683.762C331.267 592.14 405.949 519.044 497.916 512.486C603.399 504.964 694.715 584.237 702.267 689.697C700.454 692.438 700.774 707.561 702.242 710.162Z"/><path d="M900.117 718.685C900.117 718.736 900.116 718.787 900.116 718.837C897.252 765.964 875.803 811.182 842.594 843.992C816.778 869.554 784.396 887.479 749.029 895.785C720.418 902.438 694.806 900.871 665.675 900.87L584.049 900.873L318.521 900.868C266.298 900.6 216.334 879.536 179.682 842.334C154.095 816.429 136.242 783.899 128.129 748.403C121.74 720.314 123.294 694.08 123.295 665.46L123.297 579.595L123.306 405.263C123.307 376.18 123.015 346.567 123.316 317.523C123.724 265.377 144.904 215.544 182.164 179.06C207.634 154.171 239.406 136.694 274.064 128.51C303.457 121.589 329.684 123.257 359.647 123.255L440.382 123.253L599.737 123.248C630.409 123.247 661.469 123.015 692.108 123.394C685.117 133.064 681.175 141.698 682.832 154.035L425.264 154.051L352.641 154.037C328.462 154.035 305.954 152.861 282.202 158.285C252.465 165.076 225.207 180.012 203.481 201.42C172.463 231.791 154.691 273.181 154.031 316.587L154.015 585.888L153.998 665.325C153.985 690.194 152.551 716.04 157.831 740.269C164.564 770.672 179.739 798.559 201.612 820.723C234.173 853.693 275.395 869.8 321.43 869.993L592.173 870.004L668.102 870.005C692.357 870.002 717.606 871.303 741.224 865.931C771.503 858.986 799.222 843.673 821.219 821.736C843.596 799.599 859.149 771.503 866.03 740.788C871.276 717.276 870.03 694.739 870.019 670.767L870.005 600.358L870.051 341.318C881.798 342.034 888.651 340.037 898.366 333.539C900.084 336.338 899.383 367.107 899.379 373.138L899.355 438.759L899.362 639.204L899.34 689.189C899.332 696.932 898.815 711.632 900.117 718.685Z"/><path d="M507.985 270.459C567.573 268.258 617.683 314.737 619.962 374.322C622.241 433.907 575.828 484.078 516.246 486.435C456.554 488.797 406.269 442.278 403.986 382.583C401.703 322.887 448.287 272.664 507.985 270.459Z"/><path d="M724.309 123.564C733.645 122.873 736.94 125.074 743.488 131.65C748.187 136.368 753.024 141.176 757.742 145.902L801.546 189.646L843.538 147.51C849.277 141.758 855.004 135.931 860.81 130.279C865.026 126.176 868.261 123.654 874.355 123.378C882.575 123.006 885.798 127.157 891.291 132.037C899.592 139.413 904.823 149.593 896.787 159.417C890.656 166.644 883.347 173.453 876.548 180.249L834.242 222.521C846.305 233.934 858.305 246.799 870.251 258.446C875.617 263.677 898.06 284.874 899.894 290.717C901.261 295.127 900.807 299.9 898.632 303.973C895.125 310.65 885.754 319.279 878.174 321.581C877.082 321.724 875.981 321.788 874.879 321.772C872.009 321.733 867.754 320.471 865.6 318.692C858.503 312.83 851.105 304.878 844.579 298.346L801.519 255.286C780.292 275.909 759.517 298.409 737.619 318.384C734.865 320.699 731.584 321.736 728.118 321.821C717.956 322.073 701.932 306.149 702.344 295.962C702.606 289.473 705.899 285.212 710.306 280.786C715.882 275.185 721.449 269.597 727.018 264.036L768.679 222.46L728.412 182.214C721.385 175.193 714.33 168.284 707.48 161.05C698.897 151.986 701.818 141.559 710.056 133.541C715.053 128.677 717.421 125.676 724.309 123.564Z"/><path d="M898.366 333.539L899.768 332.455C901.525 333.638 900.65 346.626 900.634 349.482L900.66 377.012L900.667 495.365L900.652 649.639L900.668 693.058C900.683 699.595 901.01 712.559 900.117 718.685C898.815 711.632 899.332 696.932 899.34 689.189L899.362 639.204L899.355 438.759L899.379 373.138C899.383 367.107 900.084 336.338 898.366 333.539Z"/><path d="M702.267 689.697C702.923 696.007 703.031 703.87 702.242 710.162C700.774 707.561 700.454 692.438 702.267 689.697Z"/></svg>